# xmcd
#
# Track frame offsets: 
#        150
#        3614
#        15547
#        37636
#        42191
#        64034
#        74104
#        91813
#        102143
#        109695
#        129131
#        151748
#        164351
#        185665
#        198946
#        228652
#        237303
#        248827
#        261307
#        271336
#        284305
#        286555
#        306188
#        328231
#
# Disc length: 4409 seconds
#
# Revision: 0
# Processed by: cddbd v1.5.2PL0 Copyright (c) Steve Scherf et al.
# Submitted via: ExactAudioCopyFreeDBPlugin 1.0
#
DISCID=46113718
DTITLE=Apinaorkesteri - Not the Very Best Of
DYEAR=2012
DGENRE=Country
TTITLE0=Jussi
TTITLE1=Balladi banaaleista banaaneista kanaaleissa
TTITLE2=Electro Industrial
TTITLE3=Suojelusenkeli (feat. Sose)
TTITLE4=Erakko
TTITLE5=Epävirallinen kesäkumibiisi 2003
TTITLE6=Kesäveisu
TTITLE7=Linnanjuhlat
TTITLE8=Mehukatti
TTITLE9=Dying Without Knowledge (Gwaur cover)
TTITLE10=Plastic
TTITLE11=G-Karhu (Itä-Kirgisian Jurttaorkesteri cover)
TTITLE12=Joulun henki (feat. Jordi, kebabmestari and Transerx)
TTITLE13=Joulun ihme (MC Myytti cover)
TTITLE14=Lucia
TTITLE15=Pepper
TTITLE16=Ninja Blues (Lilcor cover)
TTITLE17=Ohutlevytuotteiden protovalmistus
TTITLE18=Ei sovi huvimme silmille pienten lastne
TTITLE19=Kannibaalien joulu
TTITLE20=Hidden Track #1
TTITLE21=Hidden Track #2
TTITLE22=Hidden Track #3
TTITLE23=Hidden Track #4
EXTD=
EXTT0=
EXTT1=
EXTT2=
EXTT3=
EXTT4=
EXTT5=
EXTT6=
EXTT7=
EXTT8=
EXTT9=
EXTT10=
EXTT11=
EXTT12=
EXTT13=
EXTT14=
EXTT15=
EXTT16=
EXTT17=
EXTT18=
EXTT19=
EXTT20=
EXTT21=
EXTT22=
EXTT23=
PLAYORDER=
